<svg xmlns="http://www.w3.org/2000/svg" viewBox="0 0 560 560" fill="none" shape-rendering="auto"><metadata xmlns:rdf="http://www.w3.org/1999/02/22-rdf-syntax-ns#" xmlns:xsi="http://www.w3.org/2001/XMLSchema-instance" xmlns:dc="http://purl.org/dc/elements/1.1/" xmlns:dcterms="http://purl.org/dc/terms/"><rdf:RDF><rdf:Description><dc:title>Notionists</dc:title><dc:creator>Zoish</dc:creator><dc:source xsi:type="dcterms:URI">https://heyzoish.gumroad.com/l/notionists</dc:source><dcterms:license xsi:type="dcterms:URI">https://creativecommons.org/publicdomain/zero/1.0/</dcterms:license><dc:rights>Remix of „Notionists” (https://heyzoish.gumroad.com/l/notionists) by „Zoish”, licensed under „CC0 1.0” (https://creativecommons.org/publicdomain/zero/1.0/)</dc:rights></rdf:Description></rdf:RDF></metadata><mask id="viewboxMask"><rect width="560" height="560" rx="280" ry="280" x="0" y="0" fill="#fff" /></mask><g mask="url(#viewboxMask)"><rect fill="#2f3b5e" width="560" height="560" x="0" y="0" /><g transform="translate(136 328)"><path d="M125.4 111.5c-9.6-13-11.7-29.2-24.6-39.4-7-5.7-14.7-8-22.8-10.6-3.7-1.1-9.3-.7-9.3-6.7-.1-6.7 6-6.6 10-7.7 12-3 22 4 30.6 9.7a60.3 60.3 0 0 1 27 46.7c.6 6.5 1.2 15.8-11 8Z" fill="#000"/></g><g transform="translate(246 125)"><g fill="#000"><path d="M75.1 117.2c3.9 16.3 7.4 31.6 11.2 46.7 5 19.6 2.1 28.4-15.7 35.9-20 8.2-45.5 7-59.6-15.5-2.2-3.5-3.6-6.6-3-10.6.7-3.2 1.9-5.7 5.4-6.3 3.7-.6 5 1.5 6.4 4.6 9.4 19.7 23.7 25.2 43.7 17.1 10.1-4 13.3-11.8 10-21.6a292 292 0 0 1-13.5-67c-1.5-14.8-4.2-30.2 5.7-43.3h4l5.4 60Z"/><path d="M31.5 177.5c-5.7-8.1 0-10.7 5.5-12.3 4-1.2 8.2 1 7.9 5.6-.5 8-6.1 8.8-13.4 6.7Z"/></g></g><g transform="translate(-45 137)"><path d="M407.4 122.5c13 .3 25.4 1.1 37.6 2.5 3 .4 5 3.3 5 6.7 0 3.3-1.7 5.6-4.7 7-11.2 4.8-22 8.2-33.7.2-6.5-4.5-9-8.7-4.2-16.4ZM251.2 124c6.4 2.8 5.6 6.6 3 10.6-5.9 8.6-27.3 12.5-36 6.6-5-3.4-8-8-5.6-14 2.5-6.2 7.7-5.6 12.8-3.6 8.3 3.3 16.5 1.7 25.8.4ZM419.6 111c-4.2-9.5-9.9-15.2-19.8-15.7-6-.3-7-5.1-8.9-9.8 2-1.5 3.5-3.7 5.3-3.8 21.1-1.7 42.4-1.8 63.5-.1 6 .4 9.3 8 3.2 10.4-10 4-12.5 13.2-18.5 19.8-8.2 9-15.2 9.1-24.8-.8ZM229.6 81.1c12.2.7 23.1 1 34 2 3.6.3 8 1.8 8 6.7 0 5.6-4.6 5.2-8.3 5.1-6.3 0-9.7 2.7-12.5 8.6-3.4 7.4-6.9 15.3-18 14.8-10.5-.6-15.1-7.2-18.2-15.2-2-5.7-4.9-8.4-10.9-8.2-3.4.1-7.1-.2-7.5-4.9-.4-5 3-6 7-7.2a67.7 67.7 0 0 1 26.4-1.7Z" fill="#000"/></g><g transform="translate(-45 137)"></g><g transform="translate(119 114)"><path d="M15 39C23.8 24.6 37 20.4 51.9 19c23.2-2.3 44 8.5 65.9 12.8 8 1.5 6.8 7.5 1.4 10.7-9.4 5.7-19.5 11-31.2 7-22.5-7.6-45.1-12-68.6-4.1-6.2 2-5-2-4.2-6.3ZM255 29c15-2.6 28.7-5.3 42.2 1.5 10.8 5.5 15 14 12.9 25.5-5 3.1-7.5-.4-10.6-2.5-11.6-7.9-23.9-10-37.3-4.6-9.3 3.7-19.2 2.4-29 2.4-4.7 0-8.4-1.8-8.7-7-.4-5.5.9-10.8 6.9-12 7.3-1.7 15-2.2 23.7-3.3Z" fill="#000"/></g></g></svg>